<svg width="40" height="43" viewBox="0 0 40 43" fill="none" xmlns="http://www.w3.org/2000/svg">
<path d="M20 0.5C30.7405 0.5 39.5 9.77894 39.5 21.292C39.5 32.8051 30.7405 42.084 20 42.084C9.25947 42.084 0.5 32.8051 0.5 21.292C0.500027 9.77894 9.25949 0.5 20 0.5Z" stroke="#363636"/>
<path d="M29 14.7114C29 13.1173 27.6788 11.7107 26.1813 11.7107H14.8186C13.3212 11.7107 12 13.1173 12 14.7114V26.8082C12 28.4023 13.3212 29.8089 14.8186 29.8089H20.544V22.9635H18.4301V19.9627H20.544V18.7437C20.544 16.6807 21.9534 14.899 23.715 14.899H26.0052V17.8997H23.715C23.4508 17.8997 23.1865 18.181 23.1865 18.7437V19.9627H26.0052V22.9635H23.1865V29.8089H26.1813C27.6788 29.8089 29 28.4023 29 26.8082V14.7114Z" fill="white"/>
</svg>
