<svg width="40" height="43" viewBox="0 0 40 43" fill="none" xmlns="http://www.w3.org/2000/svg">
<path d="M20 0.5C30.7405 0.5 39.5 9.77894 39.5 21.292C39.5 32.8051 30.7405 42.084 20 42.084C9.25947 42.084 0.5 32.8051 0.5 21.292C0.500027 9.77894 9.25949 0.5 20 0.5Z" stroke="#363636"/>
<path d="M26.5808 12.7751H14.4192C13.0462 12.7751 12 13.8889 12 15.3507V28.2979C12 29.7596 13.0462 30.8734 14.4192 30.8734H26.5808C27.9538 30.8734 29 29.7596 29 28.2979V15.3507C29 13.8889 27.9538 12.7751 26.5808 12.7751ZM20.5 27.2537C23.3115 27.2537 25.6 24.887 25.6 22.0331C25.6 21.5458 25.5346 20.989 25.4038 20.5713H26.8423V27.9498C26.8423 28.2979 26.5808 28.6459 26.1885 28.6459H14.8115C14.4846 28.6459 14.1577 28.3675 14.1577 27.9498V20.5017H15.6615C15.5308 20.989 15.4654 21.4762 15.4654 21.9635C15.4 24.887 17.6885 27.2537 20.5 27.2537ZM20.5 25.1655C18.6692 25.1655 17.2308 23.6341 17.2308 21.7547C17.2308 19.8752 18.6692 18.3438 20.5 18.3438C22.3308 18.3438 23.7692 19.8752 23.7692 21.7547C23.7692 23.7037 22.3308 25.1655 20.5 25.1655ZM26.7769 17.7174C26.7769 18.135 26.45 18.4831 26.0577 18.4831H24.2269C23.8346 18.4831 23.5077 18.135 23.5077 17.7174V15.8379C23.5077 15.4203 23.8346 15.0722 24.2269 15.0722H26.0577C26.45 15.0722 26.7769 15.4203 26.7769 15.8379V17.7174Z" fill="white"/>
</svg>
