<svg width="96" height="52" viewBox="0 0 96 52" fill="none" xmlns="http://www.w3.org/2000/svg">
<path fill-rule="evenodd" clip-rule="evenodd" d="M52.7858 49.5644C59.1469 52.5602 67.9195 50.5108 75.3808 47.1173C82.3402 43.9518 90.2518 38.6552 94.2783 31.949C96.8342 27.6954 96.263 23.1211 94.2539 19.0983H86.5535C81.7916 19.0983 79.4064 21.4826 79.4064 26.252V37.4847H76.3459V26.252C76.3459 19.4407 79.7487 16.0378 86.5535 16.0378H92.3893C91.8547 15.2978 91.2797 14.5896 90.6785 13.9209C88.9021 11.9446 86.2196 10.0763 83.9075 8.30452C81.6762 6.59466 79.2554 5.2506 76.0401 3.74896C70.4978 1.15931 61.6981 -1.2043 55.3548 0.67908C51.6247 1.78585 50.1427 3.56699 48.4235 6.23824C48.0633 6.23824 45.9201 10.6456 45.1632 15.3775C43.7938 23.9493 43.4459 45.1655 52.7858 49.5644ZM71.7434 17.5714C70.3844 17.5714 69.7006 16.8876 69.7006 15.5285C69.7006 14.162 70.3844 13.4848 71.7434 13.4848C73.111 13.4848 73.7872 14.162 73.7872 15.5285C73.7872 16.8876 73.111 17.5714 71.7434 17.5714ZM70.2165 37.4847V24.4558L67.1485 25.1733V30.3376C67.1485 35.1005 64.7642 37.4847 59.9948 37.4847H52.8487C48.0793 37.4847 45.7016 35.4419 45.7016 31.3553C45.7016 28.3858 46.7333 26.6844 48.8043 26.252L51.4502 25.6498L64.0589 22.7628C63.9351 20.3204 62.576 19.0983 59.9948 19.0983H52.8487C50.1221 19.0983 48.7621 20.464 48.7621 23.184H45.7016C45.7016 18.4221 48.0793 16.0369 52.8487 16.0369H59.9948C64.3759 16.0369 66.7433 18.0487 67.1006 22.0669L73.2779 20.6534V37.4847H70.2165ZM59.9948 34.4167C62.7214 34.4167 64.0805 33.0577 64.0805 30.3376V25.9452L49.5997 29.2712C49.0416 29.4663 48.7621 29.8152 48.7621 30.3376C48.7621 33.0577 50.1221 34.4167 52.8487 34.4167H59.9948Z" fill="url(#paint0_linear_15541_237)"/>
<path fill-rule="evenodd" clip-rule="evenodd" d="M13.3526 16.7674C17.7561 17.9303 20.746 21.6981 20.746 26.6441C20.746 32.634 16.3629 36.9347 10.3933 36.9347C4.41866 36.9347 0 32.634 0 26.6441C0 22.1502 2.48643 18.6285 6.25427 17.1498V19.9057C4.13899 21.2222 2.79155 23.608 2.79155 26.6441C2.79155 31.3669 6.05089 34.5154 10.3933 34.5154C14.7357 34.5154 17.9544 31.3669 17.9544 26.6441C17.9544 23.0802 16.1188 20.4127 13.3526 19.3184V16.7674ZM34.0478 16.3921C30.519 16.3921 27.763 17.8128 26.2884 20.2703V16.5457H23.6545V36.7425H26.4053V26.1448C26.4053 21.5374 29.1613 18.8496 33.5393 18.8496C37.419 18.8496 39.6665 21.0381 39.6665 25.3002V36.7425H42.4225V25.0317C42.4225 19.2335 39.0106 16.3921 34.0478 16.3921ZM11.5679 14.0745C11.5679 13.6036 11.3798 13.1521 11.0442 12.8195C10.7137 12.4865 10.2611 12.2999 9.79327 12.2999H9.78825C9.32044 12.2999 8.86785 12.4865 8.53225 12.8195C8.20174 13.1521 8.01359 13.6036 8.01359 14.0745V25.6826C8.01359 26.1534 8.20174 26.6045 8.53225 26.9375C8.86785 27.2701 9.32044 27.4572 9.78825 27.4572H9.79327C10.2611 27.4572 10.7137 27.2701 11.0442 26.9375C11.3798 26.6045 11.5679 26.1534 11.5679 25.6826V14.0745Z" fill="white"/>
<defs>
<linearGradient id="paint0_linear_15541_237" x1="93.4726" y1="72.739" x2="67.9094" y2="8.38349" gradientUnits="userSpaceOnUse">
<stop stop-color="#8E04B7"/>
<stop offset="1" stop-color="#E13C52"/>
</linearGradient>
</defs>
</svg>
