<svg width="40" height="43" viewBox="0 0 40 43" fill="none" xmlns="http://www.w3.org/2000/svg">
<path d="M20 0.5C30.7405 0.5 39.5 9.77894 39.5 21.292C39.5 32.8051 30.7405 42.084 20 42.084C9.25947 42.084 0.5 32.8051 0.5 21.292C0.500027 9.77894 9.25949 0.5 20 0.5Z" stroke="#55ACE3"/>
<path d="M30.6 15.8626C29.9 16.182 29.1 16.3949 28.3 16.5013C29.1 15.969 29.8 15.1174 30.1 14.1592C29.3 14.6915 28.5 15.0109 27.5 15.2238C26.8 14.3721 25.7 13.8398 24.6 13.8398C22.4 13.8398 20.6 15.7561 20.6 18.0983C20.6 18.4176 20.6 18.737 20.7 19.0564C17.4 18.8435 14.4 17.1401 12.4 14.5851C12.1 15.2238 11.9 15.969 11.9 16.7143C11.9 18.2047 12.6 19.4822 13.7 20.2275C13 20.2275 12.4 20.0145 11.9 19.6952C11.9 21.7179 13.3 23.5277 15.1 23.8471C14.8 23.9536 14.4 23.9536 14 23.9536C13.7 23.9536 13.5 23.9536 13.2 23.8471C13.7 25.5505 15.2 26.828 17 26.828C15.6 27.9991 13.9 28.6378 12 28.6378C11.7 28.6378 11.4 28.6378 11 28.5314C12.8 29.7024 14.9 30.4476 17.2 30.4476C24.6 30.4476 28.6 23.9536 28.6 18.3112V17.7789C29.4 17.4595 30.1 16.7143 30.6 15.8626Z" fill="#55ACE3"/>
</svg>
