<svg width="40" height="43" viewBox="0 0 40 43" fill="none" xmlns="http://www.w3.org/2000/svg">
<path d="M20 0.5C30.7405 0.5 39.5 9.77894 39.5 21.292C39.5 32.8051 30.7405 42.084 20 42.084C9.25947 42.084 0.5 32.8051 0.5 21.292C0.500027 9.77894 9.25949 0.5 20 0.5Z" stroke="#363636"/>
<path d="M28.7131 20.1351C28.7131 19.7221 28.6485 19.2404 28.6485 18.6898C28.5839 18.1392 28.5192 17.5886 28.4545 17.1069C28.3253 16.5563 28.1313 16.1434 27.7434 15.7992C27.4202 15.4551 26.9677 15.2487 26.5152 15.1798C25.0283 14.9734 22.8303 14.9045 19.8566 14.9045C16.8828 14.9045 14.6202 14.9734 13.198 15.1798C12.7455 15.2487 12.2929 15.4551 11.9697 15.7992C11.6465 16.1434 11.3879 16.5563 11.2586 17.1069C11.1293 17.5886 11.0647 18.0704 11.0647 18.6898C11 19.2404 11 19.7221 11 20.1351C11 20.548 11 21.0298 11 21.718C11 22.4062 11 22.9568 11 23.3009C11 23.7139 11.0647 24.1956 11.0647 24.7462C11.1293 25.2968 11.1939 25.8474 11.2586 26.3291C11.3879 26.8797 11.5818 27.2926 11.9697 27.6368C12.2929 27.9809 12.7455 28.1873 13.198 28.2562C14.6848 28.4626 16.8828 28.5315 19.8566 28.5315C22.8303 28.5315 25.0929 28.4626 26.5152 28.2562C26.9677 28.1873 27.4202 27.9809 27.7434 27.6368C28.0667 27.2926 28.3253 26.8797 28.4545 26.3291C28.5838 25.8474 28.6485 25.3656 28.6485 24.7462C28.7131 24.1956 28.7131 23.7139 28.7131 23.3009C28.7131 22.888 28.7131 22.4062 28.7131 21.718C28.7131 21.0298 28.7131 20.4792 28.7131 20.1351ZM23.2828 22.2686L18.1758 25.6409C18.1111 25.7097 17.9818 25.7785 17.8525 25.7785C17.7232 25.7785 17.6586 25.7785 17.5293 25.7097C17.3354 25.5721 17.2061 25.3656 17.2061 25.0903V18.2769C17.2061 18.0016 17.3354 17.7951 17.5293 17.6575C17.7232 17.5198 17.9818 17.5198 18.1758 17.6575L23.2828 21.0298C23.4768 21.1674 23.6061 21.3739 23.6061 21.5803C23.6061 21.7868 23.4768 22.1309 23.2828 22.2686Z" fill="white"/>
</svg>
